<?xml version="1.0" encoding="UTF-8"?>
<svg viewBox="0 0 37 37" version="1.1" xmlns="http://www.w3.org/2000/svg"
>
  <g transform="translate(0.000078, 0.000000)">
    <path d="M12.3065555,15.0231123 L9.19920895,11.9157657 L21.1149746,0 L5.54420889,0 C2.48223929,0 0,2.48223929 0,5.54420889 L0,18.6413413 C1.84480979,17.7922829 3.89616317,17.3154332 6.06017668,17.3154332 C14.0780189,17.3154332 20.5776875,23.8151018 20.5776875,31.832944 C20.5776875,33.2816829 20.3627335,34.679764 19.9676406,36 L30.4555955,36 C33.5177607,36 36,33.5177607 36,30.4557911 L36,25.1083463 L19.110563,8.21910485 L12.3065555,15.0231123 Z"
          id="Fill-1" fill="#BE302D" mask="url(#mask-2)"/>
  </g>
  <g transform="translate(22.218046, 0.000000)">
    <path d="M8.23768595,-3.91181041e-05 L5.11175825,-3.91181041e-05 L-5.55901694e-15,5.11171913 L13.7818948,18.893614 L13.7818948,5.54416977 C13.7818948,2.48220018 11.2996555,-3.91181041e-05 8.23768595,-3.91181041e-05"
          id="Fill-3" fill="#BE302D" mask="url(#mask-4)"/>
  </g>
  <g transform="translate(0.000000, 22.542649)">
    <path d="M1.15959752,-2.77950847e-15 C0.768807658,-2.77950847e-15 0.382907562,0.0199502331 -5.86771561e-05,0.0502667637 L-5.86771561e-05,7.91300568 C-5.86771561e-05,10.9751709 2.48218062,13.4574102 5.5443458,13.4574102 L15.6344696,13.4574102 C15.0909235,5.93499875 8.82048702,-2.77950847e-15 1.15959752,-2.77950847e-15"
          id="Fill-5" fill="#BE302D" mask="url(#mask-6)"/>
  </g>
</svg>
