<?xml version="1.0" encoding="UTF-8" standalone="no"?>
<svg
   width="32"
   height="32"
   viewBox="0 0 32 32"
   fill="none"
   version="1.1"
   id="svg262"
   sodipodi:docname="optimism.svg"
   inkscape:version="1.2 (dc2aeda, 2022-05-15)"
   xmlns:inkscape="http://www.inkscape.org/namespaces/inkscape"
   xmlns:sodipodi="http://sodipodi.sourceforge.net/DTD/sodipodi-0.dtd"
   xmlns="http://www.w3.org/2000/svg"
   xmlns:svg="http://www.w3.org/2000/svg">
  <defs
     id="defs266" />
  <sodipodi:namedview
     id="namedview264"
     pagecolor="#ffffff"
     bordercolor="#000000"
     borderopacity="0.25"
     inkscape:showpageshadow="2"
     inkscape:pageopacity="0.0"
     inkscape:pagecheckerboard="0"
     inkscape:deskcolor="#d1d1d1"
     showgrid="false"
     inkscape:zoom="5.7512321"
     inkscape:cx="67.637681"
     inkscape:cy="78.157166"
     inkscape:window-width="2056"
     inkscape:window-height="1257"
     inkscape:window-x="1073"
     inkscape:window-y="635"
     inkscape:window-maximized="0"
     inkscape:current-layer="svg262" />
  <circle
     cx="16"
     cy="16"
     fill="#ff0420"
     id="circle256"
     r="16"
     style="stroke-width:0.064" />
  <path
     d="m 11.336514,20.252547 c -0.952705,0 -1.7332479,-0.224192 -2.3416976,-0.672513 -0.6004449,-0.456317 -0.9006687,-1.104768 -0.9006687,-1.945407 0,-0.176129 0.020029,-0.392318 0.060032,-0.648511 0.1041256,-0.576385 0.2522218,-1.26893 0.4443503,-2.077506 0.5443848,-2.2016 1.949442,-3.3024 4.215104,-3.3024 0.616448,0 1.16883,0.104067 1.657217,0.312191 0.488383,0.200129 0.872639,0.504386 1.152834,0.912706 0.28019,0.400254 0.420349,0.880639 0.420349,1.441024 0,0.168127 -0.02003,0.380287 -0.0601,0.636479 -0.120062,0.712512 -0.26419,1.405057 -0.432321,2.077506 -0.28019,1.09683 -0.764544,1.917441 -1.453057,2.461826 -0.688511,0.536383 -1.609151,0.804605 -2.762047,0.804605 z m 0.16813,-1.729281 c 0.448383,0 0.828607,-0.132093 1.140863,-0.396286 0.320254,-0.264192 0.548416,-0.668482 0.684479,-1.212865 0.18413,-0.752573 0.324289,-1.409087 0.420352,-1.969471 0.032,-0.168129 0.048,-0.340226 0.048,-0.516419 0,-0.728509 -0.380287,-1.092798 -1.140797,-1.092798 -0.448385,0 -0.832642,0.132094 -1.152897,0.396289 -0.312194,0.264255 -0.536387,0.668543 -0.672449,1.212928 -0.144129,0.536381 -0.288257,1.192895 -0.432322,1.969471 -0.03206,0.160064 -0.04806,0.328194 -0.04806,0.504321 0,0.736578 0.384321,1.10483 1.152835,1.10483 z"
     fill="#ffffff"
     id="path258"
     style="stroke-width:0.064" />
  <path
     d="m 16.595396,20.132485 c -0.08807,0 -0.156161,-0.02803 -0.204161,-0.0841 -0.04006,-0.06406 -0.05203,-0.136066 -0.03603,-0.216131 l 1.657215,-7.805759 c 0.016,-0.08807 0.06003,-0.160127 0.132099,-0.216192 0.07206,-0.056 0.148097,-0.08403 0.228161,-0.08403 h 3.194365 c 0.888643,0 1.601154,0.184125 2.137537,0.552381 0.544447,0.368321 0.81664,0.900671 0.81664,1.597186 0,0.200127 -0.024,0.408317 -0.07206,0.624448 -0.200132,0.920703 -0.604416,1.601215 -1.212865,2.041536 -0.60045,0.440318 -1.42509,0.660479 -2.473857,0.660479 h -1.621186 l -0.552384,2.629951 c -0.01606,0.08807 -0.06009,0.160065 -0.132095,0.216131 -0.07206,0.05606 -0.148158,0.0841 -0.228158,0.0841 z M 20.84653,15.54509 c 0.336193,0 0.628417,-0.0921 0.876613,-0.276225 0.256187,-0.184127 0.424318,-0.448316 0.504382,-0.792576 0.024,-0.136126 0.03603,-0.256193 0.03603,-0.360254 0,-0.232192 -0.06803,-0.408321 -0.204162,-0.528384 -0.136127,-0.128128 -0.368252,-0.192128 -0.696511,-0.192128 h -1.44109 l -0.456319,2.149567 z"
     fill="#ffffff"
     id="path260"
     style="stroke-width:0.064" />
</svg>
